<?xml version="1.0" encoding="utf-8"?>
<!-- Generator: Adobe Illustrator 17.1.0, SVG Export Plug-In . SVG Version: 6.00 Build 0)  -->
<!DOCTYPE svg PUBLIC "-//W3C//DTD SVG 1.1//EN" "http://www.w3.org/Graphics/SVG/1.1/DTD/svg11.dtd">
<svg version="1.1" id="Layer_1" xmlns="http://www.w3.org/2000/svg" xmlns:xlink="http://www.w3.org/1999/xlink" x="0px" y="0px"
	 viewBox="0 0 448.74 425.21" enable-background="new 0 0 448.74 425.21" xml:space="preserve">
<g>
	<g>
		<g>
			<path fill="#FFFFFF" d="M397.898,90c0.784,3.187,2.222,5.8,7.701,10.602c8.273,5.633,14.441,14.065,16.431,23.95
				c1.237,4.87,1.473,9.992,2.079,14.525c-8.307-11.552-20.721-17.993-23.366-33.193C399.459,99.644,398.421,95.003,397.898,90z"/>
			<path fill="#FFFFFF" d="M43.218,104.276c7.947-6.372,11.963-9.251,13.464-12.564c-0.717,7.094-1.727,16.802-6.337,26.66
				c-5.326,7.796-12.404,14.266-16.724,22.709c0.11-6.448-0.1-13.599,1.304-20.582C36.34,114.42,37.878,108.495,43.218,104.276z"/>
			<path fill="#FFFFFF" d="M418.283,108.207c9.282,4.059,11.522,17.473,13.021,26.256c1.409,16.64-5.035,33.497-8.167,49.649
				c-0.696-14.774-4.413-28.881-14.108-40.372c-5.863-7.03-5.625-14.261-6.236-23.239c2.61,14.368,19.801,14.896,21.689,29.666
				c0.871,3.761,0.248,9.221,0.48,13.863c1.107-13.477,2.528-26.59,0.242-40.034C424.267,117.699,422.329,112.356,418.283,108.207z"
				/>
			<path fill="#FFFFFF" d="M24.338,139.834c0.615-9.678,3.695-23.938,11.563-30.532c-1.921,2.93-3.1,6.393-3.919,10.608
				c-1.777,8.916-1.254,17.448-0.607,27.263c0.488,6.013,0.07,12.393,0.542,19.398c0.791-9.293,1.772-17.521,5.036-22.602
				c6.205-8.016,14.82-12.114,16.687-22.981c0.33,15.572-3.916,24.822-11.596,38.168c-5.121,8.178-8.425,17.399-10.615,26.761
				C29.321,170.531,25.525,155.333,24.338,139.834z"/>
			<path fill="#FFFFFF" d="M432.049,131.256c11.243,21.894,7.559,51.885-2.552,73.536c-4.113,8.479-7.615,17.249-10.601,26.186
				c-0.034-4.888-0.117-9.887-1.029-14.396c-2.221-10.537-6.854-20.098-8.276-30.823c-0.811-10.57,0.644-21.167,2.285-31.588
				c2.247,13.999,8.065,27.041,9.746,41.174c0.837,4.568,0.11,9.536,0.801,14.313c1.023-16.553,4.954-32.27,9.048-48.276
				C433.509,151.026,435.642,141.577,432.049,131.256z"/>
			<path fill="#FFFFFF" d="M14.259,180.53c-0.564-16.117,1.011-32.713,9.028-47.113c-1.278,3.72-2.244,7.259-2.166,11.773
				c0.409,15.72,4.731,31.011,7.708,46.364c1.067,7.544,1.384,13.978,2.69,20.867c0.82-4.489-0.392-9.509,0.68-13.897
				c3.337-10.908,7.421-20.909,12.577-31.098c1.626-3.206,2.413-7.229,2.882-11.214c1.626,11.889,3.116,22.942-0.44,34.693
				c-5.482,14.41-10.619,26.818-12.216,42.289C30.055,214.373,17.83,199.937,14.259,180.53z"/>
			<path fill="#FFFFFF" d="M439.703,185.922c4.854,24.739,1.591,41.869-11.957,63.275c-8.88,9.848-18.358,19.21-26.016,30.086
				c1.712-8.055,4.025-16.555,2.875-24.393c-2.115-17.714-0.845-33.763,1.977-51.343c0.51-2.576,1.263-4.87,2.056-7.353
				c-0.369,13.419,4.518,25.947,6.131,39.127c0.497,5.536-0.195,10.927-1.59,16.616c-0.813,3.334-2.797,6.561-2.943,9.972
				c3.113-6.721,5.192-13.36,8.15-20.107c5.243-12.027,12.909-22.747,17.769-34.953C438.76,200.318,439.373,193.666,439.703,185.922
				z"/>
			<path fill="#FFFFFF" d="M9.46,199.447c0.239-3.299,0.839-6.839,1.601-10.516c0.265,6.181,1.079,11.698,3.559,17.141
				c6.99,13.452,16.466,26.016,21.16,40.541c1.965,5.91,2.659,12.243,6.243,17.656c-2.541-6.941-4.077-14.072-3.384-21.243
				c0.806-10.634,3.638-20.973,7.411-30.91c1.586-4.266,2.029-9.055,2.403-13.835c3.569,21.268,2.466,39.899-1.334,61.036
				c-0.987,7.205,1.493,14.802,3.658,22.155c-9.424-12.2-21.461-22.201-29.549-35.441C14.033,230.305,9.739,216.821,9.46,199.447z"
				/>
			<path fill="#FFFFFF" d="M391.731,255.097c1.725-5.414,4.708-9.894,7.637-15.124c-2.834,15.867-1.317,31.549-3.943,47.49
				c-1.688,6.636-4.683,12.409-8.483,18.177c7.824-8.968,13.412-19.534,22.168-27.72c11.176-10.171,24.077-20.61,29.321-35.307
				c-0.157,15.247-8.272,27.004-17.092,38.653c-8.013,9.592-16.986,18.694-27.272,25.86c-8.307,5.574-16.962,10.626-25.834,15.244
				C385.237,301.798,383.873,279.413,391.731,255.097z"/>
			<path fill="#FFFFFF" d="M56.161,282.497c-3.317-13.526-0.705-26.902-1.97-40.56c8.115,21.45,15.121,43.444,21.735,65.404
				c2.062,6.112,6.881,11.47,10.884,17.123c-16.394-8.579-32.659-17.067-46.556-29.481c-10.986-9.672-20.602-22.092-24.075-36.556
				c-0.988-4.382-0.985-8.77-1.48-13.172c1.679,5.478,4.131,10.867,8.067,15.53c10.328,12.058,23.549,21.104,33.82,33.211
				c3.717,4.537,6.693,9.456,11.451,13.316C62.345,299.688,58.22,291.398,56.161,282.497z"/>
			<path fill="#FFFFFF" d="M368.195,292.493c4.848-5.255,9.346-10.445,13.977-15.262c-8.463,16.296-10.276,32.26-21.82,47.234
				c-6.849,6.971-14.563,12.979-22.382,18.809c5.052-1.791,9.418-5.71,14.557-8.483c15.421-7.469,32.362-12.857,46.518-22.689
				c6.695-4.952,12.108-11.311,16.698-19.027c-4.257,13.534-11.597,25.566-22.654,34.608c-10.405,8.48-22.782,14.417-35.872,17.366
				c-12.495,2.358-24.556,4.83-36.733,8.492c8.1-7.156,15.336-15.262,21.757-23.949
				C351.065,317.397,358.586,304.084,368.195,292.493z"/>
			<path fill="#FFFFFF" d="M71.37,279.243c11.556,10.295,22.911,20.016,30.171,33.994c8.09,14.968,16.943,30.382,30.206,41.41
				c-14.653-4.928-30.286-6.512-45.317-9.96c-7.358-2.183-13.808-6.009-20.046-9.755c-14.477-9.207-27.848-22.429-31.996-39.605
				c3.476,5.603,7.251,10.907,12.65,15.023c13.508,10.142,30.001,15.168,45.213,22.087c8.459,3.791,15.366,9.485,23.011,12.694
				c-7.969-6.02-15.832-12.302-22.02-20.221C83.201,310.828,81.817,293.175,71.37,279.243z"/>
			<path fill="#FFFFFF" d="M300.456,350.643c14.991-12.182,30.363-23.545,46.782-33.729c-11.611,11.162-19.875,25.358-32.111,35.875
				c-5.701,4.805-12.789,6.635-20.268,9.182c7.312-0.31,13.873-2.579,20.3-3.484c15.298-2.599,30.569-4.154,45.763-7.423
				c8.374-2.284,15.834-6.567,22.038-11.825c-15.256,19.654-43.457,32.24-68.361,31.425c-15.461-0.817-30.395-4.979-45.86-6.011
				C279.544,360.927,291.294,357.766,300.456,350.643z"/>
			<path fill="#FFFFFF" d="M108.668,318.438c15.432,8.974,28.684,20.976,42.215,32.489c9.403,7.431,21.648,10.613,32.766,14.551
				c-16.65,1.106-32.57,5.328-49.26,6.016c-23.355-0.748-49.815-11.224-64.452-29.829c6.703,5.447,14.621,9.515,23.667,11.587
				c17.115,3.064,34.366,4.712,51.492,7.678c4.053,0.892,8.285,2.024,12.761,1.922c-7.252-2.398-14.398-3.6-19.848-8.168
				C126.03,344.517,119.175,329.943,108.668,318.438z"/>
			<path fill="#FFFFFF" d="M162.82,375.827c17.115-6.298,29.88-8.891,48.07-6.715c5.042,0.712,10.382,2.539,16.199,3.17
				c11.77-2.816,23.085-5.555,35.29-5.151c10.203,0.882,19.732,5.011,29.268,8.433c17.125,6.937,33.621,1.467,49.698-5.28
				c-10.843,8.372-23.155,15.634-36.525,19.04c-12.558,1.165-23.21,1.088-34.813-4.707c-7.01-3.444-11.332-8.264-18.208-11.132
				c-4.45-1.828-10.481-0.424-16.61,0.57c13.831,4.88,24.159,10.324,33.233,22.243c-2.46,2.346-4.737,4.561-6.862,6.711
				c-8.855-14.468-18.798-20.853-34.361-26.782c-4.023,0.836-7.733,1.839-10.761,3.147c-12.512,6.82-17.695,12.073-25.279,24.114
				c-2.054-2.189-4.342-4.333-6.912-6.453c8.887-12.558,19.337-18.019,33.501-22.992c-8.759-2.489-16.356-1.273-21.394,2.076
				c-9.701,6.998-17.534,11.019-29.034,14.566c-20.371,3.792-40.127-7.831-55.825-19.508
				C128.2,377.993,145.246,383.524,162.82,375.827z"/>
		</g>
	</g>
	<circle fill="none" stroke="#FFFFFF" stroke-width="7" stroke-miterlimit="10" cx="227.89" cy="184.382" r="175.154"/>
	<circle fill="none" stroke="#FFFFFF" stroke-width="4" stroke-miterlimit="10" cx="227.89" cy="184.382" r="138.975"/>
	<path fill="none" d="M160.476,113.977c34.281-33.202,84.759-41.894,129.476,0"/>
	
		<text transform="matrix(0.7034 -0.3572 0.4528 0.8916 172.9627 102.1159)" fill="#FFFFFF" font-family="'BrushScriptStd'" font-size="45.5074">N</text>
	
		<text transform="matrix(0.7688 -0.1768 0.2241 0.9746 198.3319 89.779)" fill="#FFFFFF" font-family="'BrushScriptStd'" font-size="45.5074">a</text>
	
		<text transform="matrix(0.7869 -0.0557 0.0707 0.9975 214.2635 86.2941)" fill="#FFFFFF" font-family="'BrushScriptStd'" font-size="45.5074">t</text>
	
		<text transform="matrix(0.7859 0.068 -0.0861 0.9963 223.5497 85.2819)" fill="#FFFFFF" font-family="'BrushScriptStd'" font-size="45.5074">u</text>
	
		<text transform="matrix(0.764 0.1966 -0.2492 0.9685 239.4071 86.7531)" fill="#FFFFFF" font-family="'BrushScriptStd'" font-size="45.5074">r</text>
	
		<text transform="matrix(0.7238 0.3137 -0.3977 0.9175 250.4657 89.32)" fill="#FFFFFF" font-family="'BrushScriptStd'" font-size="45.5074">a</text>
	
		<text transform="matrix(0.6754 0.4077 -0.5168 0.8561 265.5233 96.0392)" fill="#FFFFFF" font-family="'BrushScriptStd'" font-size="45.5074">l</text>
	<g>
		<path fill="#FFFFFF" stroke="#000000" stroke-miterlimit="10" d="M248.875,149.335l-2.162,70.926c0,0,2.711,35.497-18.322,35.497
			c-24.185,0-24.926-26.415-24.926-26.415l-1.959-72.257c0,0-2.699-35.727,26.885-35.727
			C252.393,121.359,248.875,149.335,248.875,149.335z M233.898,92.652c-71.262,0-63.434,63.704-63.434,63.704l5.008,67.753
			c0,0,0,47.159,55.143,47.159c45.933,0,46.202-46.349,46.202-46.349l8.638-74.771C285.455,150.148,293.283,92.652,233.898,92.652z"
			/>
		<g>
			<path fill="#FFFFFF" stroke="#000000" stroke-miterlimit="10" d="M287.23,218.047c1.625,9.499,6.413,16.662,8.277,21.92
				c5.649,15.94-9.273,20.865-11.162,24.619c1.451-8.542-3.349-22.21-5.125-27.404C275.993,227.753,282.362,218.867,287.23,218.047z
				"/>
			<path fill="#FFFFFF" stroke="#000000" stroke-miterlimit="10" d="M308.194,227.615c0,8.7-5.194,15.376-7.244,17.358
				c-3.771-7.482-6.756-15.261-8.622-21.375c-2.478-8.118,0.662-11.173-2.585-23.593
				C301.59,208.897,308.194,220.585,308.194,227.615z"/>
			<path fill="#FFFFFF" stroke="#000000" stroke-miterlimit="10" d="M284.684,266.599c10.217-4.263,10.805-11.908,18.744-13.966
				c7.939-2.058,15.73,0.956,24.037-1.985c-1.029,9.188-8.232,17.128-13.746,19.259C301.737,274.538,288.8,266.526,284.684,266.599z
				"/>
			<path fill="#FFFFFF" stroke="#000000" stroke-miterlimit="10" d="M301.958,247.341c9.409-5.145,6.981-18.692,15.657-21.905
				c5.954-2.205,10.658,0.294,17.494-1.544c-4.484,5.513-4.339,18.904-9.115,22.787
				C316.585,254.329,306.883,247.414,301.958,247.341z"/>
			<path fill="#FFFFFF" stroke="#000000" stroke-miterlimit="10" d="M312.101,223.892c-0.149-5.845,0.074-18.303,1.838-21.537
				c3.04-5.574,10.156-6.461,11.467-11.687c3.528,2.793,8.232,15.831,5.733,22.64C328.199,221.32,315.556,221.834,312.101,223.892z"
				/>
			<path fill="#FFFFFF" stroke="#000000" stroke-miterlimit="10" d="M311.512,199.454c-2.106-6.136-7.223-11.703-7.223-17.254
				c0-4.662,5.255-7.96,4.244-15.992c1.17,1.809,11.383,10.905,11.649,17.66C320.518,192.396,313.055,192.326,311.512,199.454z"/>
			<path fill="#FFFFFF" stroke="#000000" stroke-miterlimit="10" d="M301.081,179.048c-2.106-6.136-9.538-7.309-12.224-13.832
				c-2.252-5.468-0.313-11.976-1.324-20.008c2.589,3.681,17.251,10.886,17.515,18.615
				C305.34,172.352,302.623,171.92,301.081,179.048z"/>
			<path fill="#FFFFFF" stroke="#000000" stroke-miterlimit="10" d="M309.578,216.155c-3.587-8.875-16.621-16.701-23.783-32.191
				c-2.482-5.368,0-11.634,0.738-17.756c1,7.259,10.725,9.97,14.297,17.056C305.121,191.773,311.328,206.183,309.578,216.155z"/>
			<path fill="#FFFFFF" stroke="#000000" stroke-miterlimit="10" d="M276.308,238.317c4.499,9.63,5.616,16.691,6.299,22.228
				c0.903,7.312-12.036,7.649-19.01,1.687C263.597,262.232,272.483,254.329,276.308,238.317z"/>
			<path fill="#FFFFFF" stroke="#000000" stroke-miterlimit="10" d="M262.359,263.02c2.812,3.937,4.445,4.494,9.561,5.512
				c-7.84,4.724-19.46,4.274-30.708,2.737C241.212,271.268,257.574,269.319,262.359,263.02z"/>
			<path fill="#FFFFFF" stroke="#000000" stroke-miterlimit="10" d="M193.773,263.02c-3.179,3.375-6.837,4.156-11.953,5.174
				c7.84,4.724,26.096,6.749,35.433,3.074C217.253,271.268,200.155,269.656,193.773,263.02z"/>
			<path fill="#FFFFFF" stroke="#000000" stroke-miterlimit="10" d="M143.575,241.647c7.986,7.424,11.698,1.912,24.972,6.299
				c11.386,3.763,8.099,10.799,22.16,13.273c-4.612,4.729-23.177,5.334-30.371,0.112
				C153.362,256.271,145.308,247.432,143.575,241.647z"/>
			<path fill="#FFFFFF" stroke="#000000" stroke-miterlimit="10" d="M126.14,216.647c9.24,2.357,7.154-1.497,20.022,3.965
				c11.923,5.062,8.436,14.96,20.978,21.035c-7.143,0-17.716,4.949-27.165-6.187C134.401,228.89,131.877,219.713,126.14,216.647z"/>
			<path fill="#FFFFFF" stroke="#000000" stroke-miterlimit="10" d="M158.648,196.204c-3.31,6.346-7.858,8.029-6.749,17.098
				c1.203,9.832,4.949,16.394,14.736,25.197c0.506-4.837,2.137-15.748-1.661-24.222
				C160.214,203.654,161.416,198.752,158.648,196.204z"/>
			<path fill="#FFFFFF" stroke="#000000" stroke-miterlimit="10" d="M122.766,184.647c4.326,1.413,3.507,4.048,13.118,10.447
				c7.242,4.821,7.692,14.832,11.966,22.256c-8.999-1.912-13.048-1.8-20.922-10.574
				C121.172,200.364,124.565,189.792,122.766,184.647z"/>
			<path fill="#FFFFFF" stroke="#000000" stroke-miterlimit="10" d="M128.961,161.538c3.77,2.549,0.399,1.801,8.419,12.228
				c3.007,3.909,4.51,18.242,1.904,21.149c-3.977-7.016-9.256-6.163-13.145-15.235C123.348,173.165,128.54,164.812,128.961,161.538z
				"/>
			<path fill="#FFFFFF" stroke="#000000" stroke-miterlimit="10" d="M140.187,143.096c2.005,1.804-1.157,5.841,2.51,14.3
				c4.707,10.858-0.906,11.66,0.397,19.278c-7.317-6.315-11.025-14.333-11.326-19.445
				C131.351,150.152,137.681,145.602,140.187,143.096z"/>
			<path fill="#FFFFFF" stroke="#000000" stroke-miterlimit="10" d="M151.313,130.066c1.196,1.705,3.207,6.916,2.406,13.03
				c-0.68,5.183-6.916,7.217-6.716,14.534c-4.775-5.914-4.07-15.043-3.308-17.541C144.613,137.082,148.306,135.177,151.313,130.066z
				"/>
			<path fill="#FFFFFF" stroke="#000000" stroke-miterlimit="10" d="M164.876,157.629c0.384,2.255,0.737,8.284-7.356,13.882
				c-10.257,7.094-10.33,10.692-13.725,13.882c-1.99-9.885,2.839-17.359,6.048-19.435
				C151.059,165.171,160.655,159.885,164.876,157.629z"/>
			<path fill="#FFFFFF" stroke="#000000" stroke-miterlimit="10" d="M168.217,147.899c-0.629,2.58,0.884,5.482-8.369,10.76
				c-5.048,2.88-10.701,4.047-14.095,7.236c0.189-8.266,5.413-11.9,8.809-13.654C158.338,150.29,163.996,150.154,168.217,147.899z"
				/>
			<path fill="#FFFFFF" stroke="#000000" stroke-miterlimit="10" d="M168.999,138.758c-0.629,2.58-2.67,6.836-7.264,9.141
				c-5.195,2.607-7.743,1.341-11.138,4.531c0.676-4.531,3.715-7.181,7.11-8.935C161.484,141.544,167.147,140.159,168.999,138.758z"
				/>
			<path fill="#FFFFFF" stroke="#000000" stroke-miterlimit="10" d="M167.21,122.918c-1.258,2.769-0.818,9.942-2.895,11.893
				c-4.236,3.979-6.418,3.948-7.624,6.457c-0.817-4.507,0.294-9.54,1.995-11.631C161.315,126.407,165.907,124.841,167.21,122.918z"
				/>
			<path fill="#FFFFFF" stroke="#000000" stroke-miterlimit="10" d="M158.603,174.613c0.202,2.893-2.412,13.931-4.421,19.791
				c-1.719,5.016-4.823,11.179-7.037,15.277c-5.009-8.751-3.785-17.684-2.533-21.295
				C147.85,179.048,153.626,180.631,158.603,174.613z"/>
		</g>
	</g>
	<g>
		<path fill="none" d="M167.547,27.673c-62.638,24.214-107.065,85.02-107.065,156.202c0,92.457,74.951,167.408,167.408,167.408
			s167.408-74.951,167.408-167.408c0-71.369-44.66-132.308-107.559-156.392"/>
		<text transform="matrix(0.1989 0.98 -0.98 0.1989 60.6703 201.7876)"><tspan x="0" y="0" fill="#FFFFFF" font-family="'HoeflerText-Black'" font-size="35.9831">N</tspan><tspan x="34.894" y="-0.469" fill="#FFFFFF" font-family="'HoeflerText-Black'" font-size="35.9831" rotate="-11.474">A</tspan><tspan x="65.774" y="-7.054" fill="#FFFFFF" font-family="'HoeflerText-Black'" font-size="35.9831" rotate="-22.147">T</tspan><tspan x="94.277" y="-18.856" fill="#FFFFFF" font-family="'HoeflerText-Black'" font-size="35.9831" rotate="-32.98">U</tspan><tspan x="121.746" y="-37.076" fill="#FFFFFF" font-family="'HoeflerText-Black'" font-size="35.9831" rotate="-44.042">R</tspan><tspan x="144.592" y="-59.586" fill="#FFFFFF" font-family="'HoeflerText-Black'" font-size="35.9831" rotate="-54.941">A</tspan><tspan x="162.388" y="-85.595" fill="#FFFFFF" font-family="'HoeflerText-Black'" font-size="35.9831" rotate="-65.347">L</tspan><tspan x="173.422" y="-111.103" fill="#FFFFFF" font-family="'HoeflerText-Black'" font-size="35.9831" rotate="-71.676"> </tspan><tspan x="176.594" y="-119.64" fill="#FFFFFF" font-family="'HoeflerText-Black'" font-size="35.9831" rotate="-77.597">C</tspan><tspan x="183.203" y="-150.833" fill="#FFFFFF" font-family="'HoeflerText-Black'" font-size="35.9831" rotate="-90.168">H</tspan><tspan x="182.443" y="-188.621" fill="#FFFFFF" font-family="'HoeflerText-Black'" font-size="35.9831" rotate="-102.164">A</tspan><tspan x="175.789" y="-220.1" fill="#FFFFFF" font-family="'HoeflerText-Black'" font-size="35.9831" rotate="-114.748">M</tspan><tspan x="157.607" y="-257.279" fill="#FFFFFF" font-family="'HoeflerText-Black'" font-size="35.9831" rotate="-126.909">P</tspan><tspan x="139.724" y="-280.262" fill="#FFFFFF" font-family="'HoeflerText-Black'" font-size="35.9831" rotate="-135.267">I</tspan><tspan x="125.588" y="-294.754" fill="#FFFFFF" font-family="'HoeflerText-Black'" font-size="35.9831" rotate="-144.513">O</tspan><tspan x="97.228" y="-314.579" fill="#FFFFFF" font-family="'HoeflerText-Black'" font-size="35.9831" rotate="-156.49">N</tspan></text>
		<path fill="none" d="M139.835,70.921c46.88-35.521,115.907-44.82,177.058,0"/>
		
			<text transform="matrix(0.9352 -0.3771 0.374 0.9274 159.8541 57.1514)" fill="#FFFFFF" font-family="'HoeflerText-Black'" font-size="35.3047">K</text>
		
			<text transform="matrix(0.9909 -0.1868 0.1853 0.9827 188.1334 45.7828)" fill="#FFFFFF" font-family="'HoeflerText-Black'" font-size="35.3047">A</text>
		
			<text transform="matrix(1.0082 0.017 -0.0169 0.9999 214.8981 40.4473)" fill="#FFFFFF" font-family="'HoeflerText-Black'" font-size="35.3047">K</text>
		
			<text transform="matrix(0.9818 0.2298 -0.2279 0.9737 245.315 40.8785)" fill="#FFFFFF" font-family="'HoeflerText-Black'" font-size="35.3047">O</text>
		
			<text transform="matrix(0.9249 0.4017 -0.3984 0.9172 274.4059 47.9424)" fill="#FFFFFF" font-family="'HoeflerText-Black'" font-size="35.3047">S</text>
		<path fill="none" d="M288.929,55.936c53.001,25.502,92.778,82.677,80.806,157.543"/>
		
			<text transform="matrix(0.7016 0.7243 -0.7182 0.6958 322.4068 77.1384)" fill="#FFFFFF" font-family="'HoeflerText-Black'" font-size="35.3047">P</text>
		
			<text transform="matrix(0.5492 0.8457 -0.8387 0.5446 340.4441 95.2537)" fill="#FFFFFF" font-family="'HoeflerText-Black'" font-size="35.3047">N</text>
		
			<text transform="matrix(0.3672 0.9391 -0.9313 0.3642 356.9088 120.6971)" fill="#FFFFFF" font-family="'HoeflerText-Black'" font-size="35.3047">B</text>
		
			<text transform="matrix(0.1825 0.9917 -0.9835 0.181 366.8565 145.8646)" fill="#FFFFFF" font-family="'HoeflerText-Black'" font-size="35.3047">A</text>
		<path fill="none" d="M88.528,220.106c-13.429-57.263,6.097-124.121,71.883-161.809"/>
		
			<text transform="matrix(0.1232 -1.0008 0.9925 0.1222 84.5653 176.2315)" fill="#FFFFFF" font-family="'HoeflerText-Black'" font-size="35.3047">I</text>
		
			<text transform="matrix(0.2839 -0.9676 0.9596 0.2815 85.9564 159.6238)" fill="#FFFFFF" font-family="'HoeflerText-Black'" font-size="35.3047">N</text>
		
			<text transform="matrix(0.473 -0.8906 0.8832 0.4691 94.5341 130.5518)" fill="#FFFFFF" font-family="'HoeflerText-Black'" font-size="35.3047">B</text>
		
			<text transform="matrix(0.6339 -0.7842 0.7777 0.6286 107.1323 106.6094)" fill="#FFFFFF" font-family="'HoeflerText-Black'" font-size="35.3047">A</text>
	</g>
	<g>
		<polygon fill="#FFFFFF" points="321.593,61.536 326.57,60.447 323.447,57.809 326.405,55.113 321.516,54.235 322.013,49.214 
			318.524,51.379 316.843,47.664 314.48,52.073 309.923,50.077 310.888,54.002 306.804,54.456 310.318,58.119 307.007,61.842 
			310.98,62.133 310.161,66.103 314.741,63.888 317.295,68.251 318.81,64.537 322.275,66.509 		"/>
		<polygon fill="#FFFFFF" points="139.593,65.536 144.57,64.447 141.447,61.809 144.405,59.113 139.516,58.235 140.013,53.214 
			136.524,55.379 134.843,51.664 132.48,56.073 127.923,54.077 128.888,58.002 124.804,58.456 128.318,62.119 125.007,65.842 
			128.98,66.133 128.161,70.103 132.741,67.888 135.295,72.251 136.81,68.537 140.275,70.509 		"/>
		<polygon fill="#FFFFFF" points="76.593,191.536 81.57,190.447 78.447,187.809 81.405,185.113 76.516,184.235 77.013,179.214 
			73.524,181.379 71.843,177.664 69.48,182.073 64.923,180.077 65.888,184.002 61.804,184.456 65.318,188.119 62.007,191.842 
			65.98,192.133 65.161,196.103 69.741,193.888 72.295,198.251 73.81,194.537 77.275,196.509 		"/>
		<polygon fill="#FFFFFF" points="388.593,190.536 393.57,189.447 390.447,186.809 393.405,184.113 388.516,183.235 
			389.013,178.214 385.524,180.379 383.843,176.664 381.48,181.073 376.923,179.077 377.888,183.002 373.804,183.456 
			377.318,187.119 374.007,190.842 377.98,191.133 377.161,195.103 381.741,192.888 384.295,197.251 385.81,193.537 
			389.275,195.509 		"/>
	</g>
	<path fill="none" d="M179.796,62.209c-49.221,19.027-84.131,66.809-84.131,122.743c0,72.652,58.896,131.549,131.549,131.549
		s131.549-58.896,131.549-131.549c0-56.082-35.094-103.967-84.52-122.893"/>
	<text transform="matrix(0.8313 0.5558 -0.5558 0.8313 142.5756 286.6245)"><tspan x="0" y="0" fill="#FFFFFF" font-family="'LithosPro-Black'" font-size="31">O</tspan><tspan x="30.547" y="-0.732" fill="#FFFFFF" font-family="'LithosPro-Black'" font-size="31" rotate="-11.188">L</tspan><tspan x="50.773" y="-4.674" fill="#FFFFFF" font-family="'LithosPro-Black'" font-size="31" rotate="-21.559">Y</tspan><tspan x="76.529" y="-14.688" fill="#FFFFFF" font-family="'LithosPro-Black'" font-size="31" rotate="-35.475">M</tspan><tspan x="105.955" y="-36.941" fill="#FFFFFF" font-family="'LithosPro-Black'" font-size="31" rotate="-49.005">P</tspan><tspan x="121.459" y="-55.511" fill="#FFFFFF" font-family="'LithosPro-Black'" font-size="31" rotate="-57.752">I</tspan><tspan x="130.271" y="-68.859" fill="#FFFFFF" font-family="'LithosPro-Black'" font-size="31" rotate="-67.43">A</tspan></text>
</g>
</svg>
