<?xml version="1.0" encoding="utf-8"?>
<!-- Generator: Adobe Illustrator 17.1.0, SVG Export Plug-In . SVG Version: 6.00 Build 0)  -->
<!DOCTYPE svg PUBLIC "-//W3C//DTD SVG 1.1//EN" "http://www.w3.org/Graphics/SVG/1.1/DTD/svg11.dtd">
<svg version="1.1" id="Layer_1" xmlns="http://www.w3.org/2000/svg" xmlns:xlink="http://www.w3.org/1999/xlink" x="0px" y="0px"
	 viewBox="0 0 296.011 81.986" enable-background="new 0 0 296.011 81.986" xml:space="preserve">
<path fill-rule="evenodd" clip-rule="evenodd" d="M271.208,63.555c-13.698,0-24.803-11.118-24.803-24.832
	c0-13.714,11.105-24.832,24.803-24.832s24.803,11.118,24.803,24.832C296.011,52.438,284.906,63.555,271.208,63.555z M257.839,49.924
	c0.087,0.259,0,1.1,0.674,1.432c0.674,0.332,1.4,0.8,1.659,1.007c0.259,0.207,0.618,0.986,1.19,1.09
	c0.572,0.104,0.987-0.052,1.402-0.26c0.415-0.208,1.234-0.156,1.234-0.156s0.23-2.543-0.321-3.011
	c-0.551-0.467-2.987-2.024-3.506-4.256c-0.518,0.675-1.539,2.251-2.169,2.423c-0.63,0.172-1.201,0.38-1.045,0.588
	C257.113,48.989,257.752,49.665,257.839,49.924z M283.763,27.759c-0.415-1.298-0.985-2.128-1.815-2.595
	c-0.83-0.467-0.674,0-1.262,0.571c-0.588,0.571-1.123,0.363-1.071,0.662c0.052,0.299-0.726,0.324-1.296,0.48
	c-0.57,0.156-1.348-0.779-1.452-1.038c-0.104-0.26,0.104-1.609,0.467-2.07c0.363-0.461,1.244-0.733,2.333-1.097
	c0.934-0.312,1.831-0.306,2.853,0.054c-3.195-2.269-7.096-3.607-11.312-3.607c-10.814,0-19.581,8.777-19.581,19.604
	c0,1.817,0.252,3.574,0.714,5.244c1.306-1.665,3.557-2.372,3.891-2.816c0.39-0.519,0.674-2.803,2.281-3.737
	c1.607-0.935,3.311-0.312,3.311-0.312c0.485,0.156,0.603-0.208,1.089-0.623c0.486-0.415,3.509-1.642,3.645-1.849
	c0.136-0.208,0.096-0.251,0-0.932c-0.406-0.315-0.579-2.187-0.579-2.187s-0.02,0.08-0.259,0c-0.357-0.071-0.622-2.013-0.674-2.239
	c-0.052-0.226,0.311-0.293,0.311-0.293s-0.259-1.817,0-2.582c0.259-0.765,1.607-2.116,4.388-1.83
	c2.78,0.286,2.697,3.789,2.697,3.789s0.07,0,0.223,0.052c0.153,0.052,0.106,1.487,0.091,2.076c-0.015,0.589-0.483,0.567-0.483,0.567
	s-0.013,2.054,0.044,2.72c0.057,0.666,2.061,1.566,2.372,1.609c0.311,0.042,1.43-1.011,2.385-2.171
	c0.955-1.16,3.474-0.674,3.612-0.519c0.138,0.155,1.106-1.453,1.849-2.128c0.743-0.675,2.575-0.156,2.575-0.156s0,0,0.104-0.311
	C285.007,30.043,284.178,29.057,283.763,27.759z M285.007,38.452c-1.089,0.26-2.541,0.455-3.059,1.35
	c-0.104,3.478-2.333,6.748-4.511,9.759c0.348,2.514-0.341,6.239-0.715,7.973c8.128-2.385,14.067-9.901,14.067-18.811
	c0-1.72-0.223-3.387-0.638-4.976C288.138,36.889,285.871,38.246,285.007,38.452z M235.582,44.949c-1.153,0-2.088-0.936-2.088-2.09
	c0-1.155,0.935-2.091,2.088-2.091s2.088,0.936,2.088,2.091C237.67,44.013,236.735,44.949,235.582,44.949z M227.425,44.949
	c-1.153,0-2.088-0.936-2.088-2.09c0-1.155,0.935-2.091,2.088-2.091c1.153,0,2.088,0.936,2.088,2.091
	C229.513,44.013,228.578,44.949,227.425,44.949z M219.268,44.949c-1.153,0-2.088-0.936-2.088-2.09c0-1.155,0.935-2.091,2.088-2.091
	c1.153,0,2.088,0.936,2.088,2.091C221.356,44.013,220.421,44.949,219.268,44.949z M211.111,44.949c-1.153,0-2.088-0.936-2.088-2.09
	c0-1.155,0.935-2.091,2.088-2.091c1.153,0,2.088,0.936,2.088,2.091C213.199,44.013,212.264,44.949,211.111,44.949z M202.954,44.949
	c-1.153,0-2.088-0.936-2.088-2.09c0-1.155,0.935-2.091,2.088-2.091c1.153,0,2.088,0.936,2.088,2.091
	C205.042,44.013,204.107,44.949,202.954,44.949z M194.797,44.949c-1.153,0-2.088-0.936-2.088-2.09c0-1.155,0.935-2.091,2.088-2.091
	s2.088,0.936,2.088,2.091C196.885,44.013,195.95,44.949,194.797,44.949z M147.002,81.983c-22.642,0.257-41.305-18.003-41.421-40.759
	C105.466,18.415,123.823,0.302,145.953,0c22.646-0.29,41.34,17.932,41.495,40.687C187.603,63.576,169.167,81.731,147.002,81.983z
	 M144.328,77.264c0-3.585,0-7.162,0-10.782c-3.347,0-6.649,0-9.967,0C136.078,71.124,140.519,76.614,144.328,77.264z
	 M144.332,62.097c0-3.722,0-7.402,0-11.115c-4.814,0-9.581,0-14.384,0c0.513,3.68,1.296,7.226,2.412,10.699
	c0.141,0.439,0.387,0.468,0.756,0.467c3.543-0.009,7.086-0.004,10.629-0.007C143.934,62.141,144.123,62.113,144.332,62.097z
	 M134.718,75.721c0.017-0.117,0.031-0.146,0.021-0.158c-2.084-2.702-3.77-5.633-5.1-8.776c-0.069-0.164-0.358-0.332-0.546-0.333
	c-2.906-0.021-5.812-0.015-8.958-0.015C124.385,70.756,129.164,73.817,134.718,75.721z M111.409,51.475
	c1.058,3.593,2.665,6.925,4.74,10.039c0.303,0.455,0.605,0.65,1.172,0.645c3.277-0.032,6.554-0.015,9.831-0.015
	c0.237,0,0.473,0,0.756,0c-0.047-0.244-0.075-0.41-0.111-0.574c-0.696-3.222-1.448-6.434-2.051-9.674
	c-0.156-0.84-0.417-1.001-1.185-0.994c-4.108,0.035-8.217,0.016-12.325,0.016c-0.288,0-0.577,0-0.967,0
	C111.338,51.196,111.368,51.337,111.409,51.475z M110.299,46.558c4.941,0,9.842,0,14.75,0c0-3.751,0-7.427,0-11.131
	c-4.908,0-9.809,0-14.75,0C109.712,39.149,109.711,42.835,110.299,46.558z M116.305,20.286c-1.194,2.128-2.433,4.236-3.51,6.423
	c-0.66,1.341-1.061,2.81-1.597,4.276c0.27,0.043,0.388,0.077,0.505,0.078c4.451,0.003,8.902-0.002,13.353,0.011
	c0.457,0.001,0.562-0.208,0.627-0.605c0.31-1.881,0.605-3.766,0.993-5.631c0.342-1.646,0.798-3.268,1.227-4.996
	c-3.719,0-7.361-0.007-11.002,0.019C116.696,19.862,116.415,20.089,116.305,20.286z M120.128,15.547c0.412,0,0.599,0,0.786,0
	c2.639,0,5.277-0.015,7.916,0.013c0.522,0.005,0.765-0.162,0.967-0.644c1.241-2.965,2.799-5.751,4.811-8.269
	c0.063-0.079,0.095-0.184,0.212-0.418C129.152,8.168,124.387,11.234,120.128,15.547z M144.326,4.719
	c-3.902,0.674-8.342,6.333-9.961,10.783c3.316,0,6.619,0,9.961,0C144.326,11.881,144.326,8.304,144.326,4.719z M144.336,19.947
	c-0.063-0.044-0.083-0.07-0.103-0.07c-3.786-0.013-7.572-0.029-11.358-0.017c-0.162,0.001-0.412,0.23-0.471,0.404
	c-1.174,3.48-1.944,7.053-2.456,10.75c4.848,0,9.599,0,14.388,0C144.336,27.278,144.336,23.597,144.336,19.947z M144.339,35.435
	c-4.961,0-9.881,0-14.952,0c0,3.714,0,7.39,0,11.093c5.114,0,10.031,0,14.952,0C144.339,42.801,144.339,39.141,144.339,35.435z
	 M148.705,77.251c3.179-0.274,9.679-7.359,9.919-10.774c-3.288,0-6.577,0-9.919,0C148.705,70.094,148.705,73.671,148.705,77.251z
	 M160.133,62.117c0.195-0.002,0.495-0.344,0.562-0.58c0.536-1.903,1.074-3.807,1.521-5.732c0.366-1.58,0.609-3.189,0.916-4.84
	c-4.885,0-9.635,0-14.415,0c0,3.743,0,7.438,0,11.178C152.564,62.143,156.349,62.152,160.133,62.117z M148.696,46.549
	c4.965,0,9.885,0,14.862,0c0.259-3.737,0.281-7.428-0.012-11.115c-5.01,0-9.91,0-14.85,0
	C148.696,39.155,148.696,42.833,148.696,46.549z M163.08,31.012c-0.51-3.72-1.29-7.315-2.486-10.811
	c-0.062-0.182-0.476-0.344-0.727-0.345c-3.445-0.022-6.89-0.015-10.335-0.015c-0.263,0-0.526,0-0.815,0c0,3.77,0,7.467,0,11.171
	C153.53,31.012,158.281,31.012,163.08,31.012z M148.705,4.729c0,3.583,0,7.161,0,10.755c0.142,0.026,0.235,0.058,0.327,0.058
	c3.197,0.003,6.394,0.002,9.664,0.002C156.89,10.774,152.465,5.334,148.705,4.729z M158.245,6.246
	c1.001,1.524,1.994,2.889,2.827,4.346c0.846,1.48,1.519,3.059,2.308,4.573c0.1,0.192,0.437,0.358,0.67,0.365
	c1.221,0.036,2.443,0.017,3.665,0.017c1.654,0,3.308,0,5.189,0C168.634,11.232,163.868,8.157,158.245,6.246z M181.697,30.757
	c-1.103-3.815-2.794-7.35-5.064-10.604c-0.122-0.174-0.437-0.293-0.666-0.298c-1.222-0.029-2.445-0.014-3.668-0.014
	c-2.37,0-4.74,0-7.212,0c0.106,0.4,0.193,0.678,0.253,0.961c0.669,3.153,1.359,6.302,1.978,9.465
	c0.116,0.596,0.252,0.819,0.892,0.815c4.255-0.028,8.51-0.015,12.766-0.015c0.237,0,0.475,0,0.723,0
	C181.7,30.899,181.716,30.823,181.697,30.757z M182.726,35.445c-4.993,0-9.894,0-14.747,0c0,3.731,0,7.406,0,11.113
	c4.906,0,9.807,0,14.751,0C183.313,42.82,183.329,39.119,182.726,35.445z M176.737,61.676c1.195-2.125,2.431-4.232,3.505-6.418
	c0.657-1.337,1.054-2.803,1.585-4.257c-0.253-0.046-0.346-0.078-0.44-0.078c-4.471-0.004-8.942,0-13.413-0.014
	c-0.458-0.001-0.566,0.209-0.624,0.607c-0.203,1.377-0.386,2.76-0.675,4.119c-0.456,2.146-0.991,4.275-1.516,6.507
	c3.651,0,7.288,0.008,10.926-0.02C176.307,62.121,176.618,61.887,176.737,61.676z M172.887,66.438c-0.452,0-0.686,0-0.921,0
	c-2.197,0-4.401,0.101-6.589-0.037c-1.395-0.087-2.082,0.314-2.615,1.657c-1.083,2.727-2.658,5.206-4.455,7.574
	C163.863,73.802,168.646,70.764,172.887,66.438z M98.158,44.949c-1.153,0-2.088-0.936-2.088-2.09c0-1.155,0.935-2.091,2.088-2.091
	c1.153,0,2.088,0.936,2.088,2.091C100.246,44.013,99.311,44.949,98.158,44.949z M90,44.949c-1.153,0-2.088-0.936-2.088-2.09
	c0-1.155,0.935-2.091,2.088-2.091c1.153,0,2.088,0.936,2.088,2.091C92.089,44.013,91.154,44.949,90,44.949z M81.843,44.949
	c-1.153,0-2.088-0.936-2.088-2.09c0-1.155,0.935-2.091,2.088-2.091s2.088,0.936,2.088,2.091
	C83.931,44.013,82.996,44.949,81.843,44.949z M73.686,44.949c-1.153,0-2.088-0.936-2.088-2.09c0-1.155,0.935-2.091,2.088-2.091
	c1.153,0,2.088,0.936,2.088,2.091C75.774,44.013,74.839,44.949,73.686,44.949z M65.529,44.949c-1.153,0-2.088-0.936-2.088-2.09
	c0-1.155,0.935-2.091,2.088-2.091c1.153,0,2.088,0.936,2.088,2.091C67.617,44.013,66.682,44.949,65.529,44.949z M57.372,44.949
	c-1.153,0-2.088-0.936-2.088-2.09c0-1.155,0.935-2.091,2.088-2.091c1.153,0,2.088,0.936,2.088,2.091
	C59.46,44.013,58.525,44.949,57.372,44.949z M24.803,66.831C11.105,66.831,0,55.713,0,41.999c0-13.714,11.105-24.832,24.803-24.832
	s24.803,11.118,24.803,24.832C49.606,55.713,38.501,66.831,24.803,66.831z M24.803,22.395c-10.814,0-19.581,8.777-19.581,19.604
	c0,8.303,5.158,15.396,12.44,18.254c0.235-1.239,0.671-2.394,1.718-3.348c0.391-0.356,0.583-1.028,0.686-1.588
	c0.449-2.425,0.103-4.722-1.266-6.825c-0.468-0.719-0.917-1.454-1.311-2.216c-0.233-0.452-0.357-0.964-0.496-1.458
	c-0.078-0.278-0.172-0.329-0.434-0.196c-0.67,0.338-1.387,0.395-2.121,0.291c-1.795-0.253-3.302-1.073-4.574-2.347
	c-0.067-0.067-0.138-0.189-0.124-0.272c0.173-1.052,0.339-2.106,0.55-3.151c0.413-2.048,0.823-4.098,1.303-6.131
	c0.127-0.539,0.506-1.019,0.772-1.525c0.188-0.358,0.38-0.713,0.571-1.069c0.209-0.39,0.409-0.784,0.63-1.166
	c0.131-0.228,0.337-0.316,0.598-0.21c0.034,0.014,0.07,0.041,0.103,0.037c0.679-0.073,1.008,0.403,1.331,0.867
	c0.283,0.406,0.567,0.817,0.789,1.257c0.214,0.425-0.069,0.89-0.54,1.01c-0.145,0.037-0.281,0.113-0.418,0.179
	c-0.066,0.032-0.119,0.09-0.186,0.118c-0.511,0.221-1.03,0.424-1.531,0.663c-0.133,0.064-0.273,0.217-0.313,0.357
	c-0.382,1.322-0.604,2.663-0.36,4.041c0.15,0.845,0.312,1.688,0.475,2.566c0.6-0.158,1.15-0.028,1.693,0.2
	c0.094,0.04,0.239,0.014,0.341-0.029c0.71-0.296,1.399-0.244,2.052,0.139c0.346,0.203,0.641,0.237,1.033,0.076
	c1.569-0.644,2.501-1.884,3.113-3.373c0.36-0.875,0.335-1.822,0.021-2.745c-0.136-0.4-0.21-0.821-0.322-1.274
	c-0.58,0.402-0.908,0.933-1.001,1.612c-0.094,0.683,0.151,1.271,0.517,1.842c-0.098-0.059-0.196-0.118-0.329-0.198
	c0,0.267,0.028,0.518-0.008,0.76c-0.038,0.259,0.021,0.582-0.342,0.699c-0.046,0.015-0.046,0.155-0.077,0.233
	c-0.41,1.034-1.104,1.46-2.159,1.454c0.156-0.22,0.321-0.401,0.42-0.612c0.072-0.152,0.405-0.349,0.004-0.521
	c-0.01-0.004-0.016-0.053-0.005-0.066c0.235-0.288-0.144-0.469-0.125-0.734c0.019-0.264-0.047-0.537-0.094-0.802
	c-0.024-0.137-0.09-0.267-0.156-0.457c-0.111,0.179-0.184,0.299-0.257,0.418c-0.031,0.004-0.063,0.007-0.094,0.011
	c0.2-0.811-0.29-1.408-0.556-2.076c-0.43-1.079-0.558-2.169-0.204-3.316c0.328-1.061,1.02-1.651,2.085-1.744
	c0.562-0.05,1.147,0.049,1.709,0.149c0.417,0.075,0.68,0.41,0.909,0.761c0.081,0.124,0.241,0.261,0.37,0.267
	c0.099,0.005,0.212-0.183,0.312-0.292c0.219-0.237,0.39-0.571,0.66-0.7c0.725-0.345,1.491-0.603,2.241-0.896
	c0.443,0,0.885,0,1.328,0c0.777,0.291,1.573,0.541,2.328,0.882c0.962,0.436,1.285,1.114,1.154,2.172
	c-0.012,0.093,0.015,0.194,0.037,0.288c0.184,0.776,0.202,1.516-0.244,2.241c-0.138,0.224-0.098,0.588-0.066,0.879
	c0.034,0.313,0.165,0.615,0.234,0.927c0.046,0.209-0.026,0.37-0.271,0.385c-0.292,0.019-0.353,0.216-0.37,0.457
	c-0.036,0.505-0.207,0.935-0.636,1.251c-0.111,0.082-0.159,0.266-0.206,0.413c-0.155,0.48-0.439,0.678-0.923,0.521
	c-0.379-0.123-0.727-0.343-1.083-0.531c-0.127-0.067-0.237-0.165-0.349-0.245c-0.458,0.432-0.697,1.469-0.473,2.006
	c0.031,0.076,0.082,0.164,0.149,0.202c0.61,0.347,1.236,0.613,1.96,0.369c0.383-0.129,0.766-0.266,1.159-0.351
	c0.891-0.192,1.655,0.095,2.285,0.724c0.245,0.245,0.441,0.269,0.773,0.152c1.005-0.352,1.958-0.22,2.796,0.484
	c0.24,0.201,0.474,0.41,0.698,0.604c0.073-0.05,0.103-0.059,0.11-0.077c0.444-1.132,0.896-2.262,1.319-3.402
	c0.101-0.271,0.139-0.577,0.144-0.869c0.02-1.058,0.015-2.116,0.018-3.173c0-0.086-0.01-0.172-0.023-0.257
	c-0.074-0.496-0.101-0.543-0.581-0.452c-0.62,0.119-1.143,0.024-1.553-0.492c-0.075-0.094-0.185-0.161-0.283-0.235
	c-0.587-0.442-0.593-0.848-0.015-1.279c-0.063-0.574,0.493-1.547,1.075-1.83c0.361-0.176,0.726-0.373,1.16-0.258
	c0.07,0.018,0.159-0.05,0.242-0.062c0.118-0.017,0.283-0.071,0.351-0.016c0.352,0.288,0.787,0.486,0.978,0.957
	c0.285,0.706,0.594,1.403,0.918,2.092c0.249,0.528,0.358,1.057,0.266,1.643c-0.198,1.253-0.046,2.504,0.073,3.753
	c0.031,0.328,0.082,0.655,0.124,0.982c0,1.181,0,2.363,0,3.545c-0.118,0.487-0.179,0.999-0.368,1.457
	c-0.311,0.757-0.696,1.484-1.074,2.211c-0.059,0.114-0.243,0.231-0.371,0.233c-1.177,0.016-2.36,0.081-3.529-0.017
	c-1.055-0.088-2.095-0.358-3.14-0.555c-0.259-0.049-0.511-0.128-0.815-0.205c0.054,0.395,0.103,0.756,0.154,1.116
	c0.102,0.728-0.123,1.338-0.678,1.816c-1.003,0.864-1.522,1.998-1.854,3.247c-0.237,0.89-0.514,1.769-0.74,2.661
	c-0.087,0.342-0.092,0.706-0.12,1.062c-0.037,0.483,0.054,0.927,0.241,1.392c0.455,1.135,0.858,2.29,1.267,3.443
	c8.877-1.864,15.543-9.744,15.543-19.185C44.384,31.172,35.618,22.395,24.803,22.395z"/>
</svg>
